<svg width="205" height="393" viewBox="0 0 205 393" fill="none" xmlns="http://www.w3.org/2000/svg">
<path d="M95.7571 20.4606C128.941 17.6293 160.582 46.7155 140.003 85.5829L158.267 97.4233C175.502 70.6536 170.378 43.884 159.81 28.1827C142.832 2.95734 116.834 -2.46101 88.2971 0.898228C57.6853 7.07584 42.4914 20.4404 32.4757 48.7747C26.5591 76.8313 39.6784 98.9678 57.6853 112.61C80.5798 127.797 115.307 134.489 130.227 145.815C140.983 156.852 141.017 164.002 138.202 177.217L128.17 203.472L141.546 208.106L151.064 183.91C153.207 180.922 154.687 179.962 158.524 181.336C163.219 183.048 162.827 185.111 162.13 188.776L162.125 188.8L152.607 212.481L164.183 216.857C170.405 205.872 173.225 198.808 177.045 184.425C179.103 180.049 181.312 181.022 184.505 181.336C187.505 182.57 188.272 184.291 188.364 188.8C183.773 206.767 179.794 215.548 170.1 228.698C144.921 254.39 115.606 263.282 88.5543 258.813C61.503 254.345 46.7336 246.677 21.157 223.035C27.5881 244.914 59.486 270.911 99.6157 274C131.305 271.823 150.035 267.308 172.158 246.973C208.112 207.736 206.114 169.753 189.65 150.19C173.187 130.628 138.716 117.501 90.0978 100.255C31.9612 78.1183 56.3991 23.8187 95.7571 20.4606Z" fill="#FFF2E2"/>
<path d="M24.2441 131.915C69.5186 104.631 112.992 162.803 76.7207 202.7L117.108 246.458L96.5283 248.774C84.4382 251.348 77.2358 235.647 60.7725 212.738C4.17939 225.866 -14.0848 155.014 24.2441 131.915ZM49.1963 141.182C33.7107 141.182 21.1572 153.743 21.1572 169.238C21.1573 184.733 33.7107 197.295 49.1963 197.295C64.6819 197.295 77.2353 184.733 77.2354 169.238C77.2354 153.743 64.682 141.182 49.1963 141.182Z" fill="#FFF2E2"/>
<path d="M31.2325 335C31.2058 334.573 31.3258 334.227 31.5925 333.96C31.8592 333.693 32.1925 333.56 32.5925 333.56H34.9925C35.3658 333.56 35.6725 333.693 35.9125 333.96C36.1525 334.2 36.2858 334.507 36.3125 334.88C36.4725 337.067 37.0325 338.8 37.9925 340.08C38.9525 341.36 40.2458 342 41.8725 342C43.5258 342 44.7925 341.52 45.6725 340.56C46.5792 339.6 47.0325 338.293 47.0325 336.64C47.0325 335.413 46.4725 334.2 45.3525 333C44.2325 331.8 42.5792 330.507 40.3925 329.12C38.4192 328.133 36.8592 327.253 35.7125 326.48C34.5925 325.68 33.7925 324.8 33.3125 323.84C32.8592 322.853 32.6325 321.6 32.6325 320.08C32.6325 319.093 32.9525 318.067 33.5925 317C34.2592 315.933 35.2592 315.04 36.5925 314.32C37.9258 313.573 39.6058 313.2 41.6325 313.2C43.1258 313.2 44.5792 313.507 45.9925 314.12C47.4058 314.707 48.8192 315.507 50.2325 316.52C50.7658 316.84 51.0325 317.267 51.0325 317.8C51.0325 318.253 50.8192 318.587 50.3925 318.8L49.4325 319.28C49.3258 319.307 49.2192 319.347 49.1125 319.4C49.0325 319.427 48.9525 319.44 48.8725 319.44C48.5792 319.44 48.2992 319.333 48.0325 319.12C46.5125 317.867 45.2992 316.96 44.3925 316.4C43.4858 315.813 42.5658 315.52 41.6325 315.52C40.4058 315.52 39.3792 315.96 38.5525 316.84C37.7525 317.693 37.3525 318.747 37.3525 320C37.3525 321.387 37.6725 322.64 38.3125 323.76C38.9792 324.88 40.3258 325.907 42.3525 326.84C44.2192 327.693 45.8725 328.627 47.3125 329.64C48.7792 330.627 49.9258 331.693 50.7525 332.84C51.6058 333.987 52.0325 335.24 52.0325 336.6C52.0325 338.093 51.5925 339.427 50.7125 340.6C49.8325 341.773 48.6325 342.707 47.1125 343.4C45.5925 344.067 43.8458 344.4 41.8725 344.4C38.8058 344.4 36.3392 343.547 34.4725 341.84C32.6058 340.107 31.5258 337.827 31.2325 335ZM73.8422 342.56C73.8422 342.987 73.7089 343.333 73.4422 343.6C73.1755 343.867 72.8555 344 72.4822 344H70.2422C69.8689 344 69.5489 343.867 69.2822 343.6C69.0155 343.307 68.8822 342.947 68.8822 342.52C68.8822 340.547 68.8822 339.027 68.8822 337.96C68.8822 336.867 68.8689 336.04 68.8422 335.48C68.8422 334.893 68.8422 334.4 68.8422 334C68.8422 331.333 68.5489 329.267 67.9622 327.8C67.4022 326.333 66.4689 325.6 65.1622 325.6C63.5089 325.6 62.2955 325.96 61.5222 326.68C60.7489 327.373 60.3622 328.507 60.3622 330.08V342.64C60.3622 343.013 60.2289 343.333 59.9622 343.6C59.6955 343.867 59.3755 344 59.0022 344H56.6022C56.2289 344 55.9089 343.867 55.6422 343.6C55.3755 343.333 55.2422 343.013 55.2422 342.64V324.56C55.2422 324.187 55.3755 323.867 55.6422 323.6C55.9089 323.333 56.2289 323.2 56.6022 323.2H59.0022C59.5889 323.2 60.0022 323.453 60.2422 323.96C61.7089 323.453 63.3489 323.2 65.1622 323.2C67.0555 323.2 68.5622 323.493 69.6822 324.08C70.8022 324.667 71.6555 325.48 72.2422 326.52C72.8289 327.533 73.2289 328.693 73.4422 330C73.6555 331.307 73.7755 332.68 73.8022 334.12C73.8289 334.52 73.8422 335.013 73.8422 335.6C73.8422 336.16 73.8422 336.973 73.8422 338.04C73.8422 339.107 73.8422 340.613 73.8422 342.56ZM84.2734 344.4C82.5668 344.4 81.1134 343.96 79.9134 343.08C78.7401 342.173 77.8334 340.933 77.1934 339.36C76.5801 337.787 76.2734 335.987 76.2734 333.96C76.2734 331.96 76.6334 330.147 77.3534 328.52C78.1001 326.893 79.1268 325.6 80.4334 324.64C81.7401 323.68 83.2734 323.2 85.0334 323.2C87.3268 323.2 89.2334 323.693 90.7534 324.68C92.2734 325.64 93.4068 326.893 94.1534 328.44C94.9001 329.987 95.2734 331.627 95.2734 333.36C95.2734 333.467 95.2734 333.573 95.2734 333.68C95.4601 335.467 95.6734 337.093 95.9134 338.56C96.1534 340 96.3934 341.2 96.6334 342.16C96.6601 342.24 96.6734 342.347 96.6734 342.48C96.6734 343.28 96.2601 343.747 95.4334 343.88L93.1534 344.16C92.4068 344.24 91.9401 343.933 91.7534 343.24C91.6468 342.813 91.5534 342.373 91.4734 341.92C90.5668 342.693 89.5134 343.307 88.3134 343.76C87.1134 344.187 85.7668 344.4 84.2734 344.4ZM84.2734 342C85.5801 342 86.6601 341.573 87.5134 340.72C88.3668 339.84 89.0068 338.733 89.4334 337.4C89.8868 336.067 90.1134 334.693 90.1134 333.28C90.1134 333.253 90.1134 333.2 90.1134 333.12C90.0868 332.987 90.0734 332.84 90.0734 332.68C90.0734 332.547 90.0734 332.427 90.0734 332.32C89.9934 331.147 89.7534 330.053 89.3534 329.04C88.9534 328 88.3934 327.173 87.6734 326.56C86.9534 325.92 86.0734 325.6 85.0334 325.6C84.4734 325.6 83.9134 326.013 83.3534 326.84C82.7934 327.64 82.3268 328.68 81.9534 329.96C81.5801 331.24 81.3934 332.573 81.3934 333.96C81.3934 335.347 81.5401 336.653 81.8334 337.88C82.1268 339.107 82.5001 340.107 82.9534 340.88C83.4068 341.627 83.8468 342 84.2734 342ZM104.156 350.64C104.156 351.013 104.023 351.333 103.756 351.6C103.489 351.867 103.169 352 102.796 352H100.996C100.623 352 100.303 351.867 100.036 351.6C99.7693 351.333 99.6359 351.013 99.6359 350.64V324.96C99.6359 324.587 99.7693 324.267 100.036 324C100.303 323.733 100.623 323.6 100.996 323.6H102.796C103.489 323.6 103.929 323.933 104.116 324.6C105.423 323.667 107.223 323.2 109.516 323.2C111.409 323.2 113.089 323.68 114.556 324.64C116.049 325.573 117.223 326.827 118.076 328.4C118.929 329.973 119.356 331.707 119.356 333.6C119.356 335.493 118.956 337.227 118.156 338.8C117.356 340.373 116.236 341.64 114.796 342.6C113.383 343.533 111.716 344 109.796 344C108.649 344 107.596 343.84 106.636 343.52C105.703 343.173 104.876 342.693 104.156 342.08V350.64ZM109.676 341.56C110.956 341.56 111.983 341.187 112.756 340.44C113.556 339.667 114.129 338.667 114.476 337.44C114.849 336.213 115.036 334.933 115.036 333.6C115.036 332.267 114.796 330.987 114.316 329.76C113.836 328.533 113.169 327.533 112.316 326.76C111.489 325.987 110.556 325.6 109.516 325.6C108.023 325.6 106.756 326.307 105.716 327.72C104.703 329.133 104.196 331.16 104.196 333.8C104.196 335.267 104.503 336.587 105.116 337.76C105.729 338.933 106.463 339.867 107.316 340.56C108.169 341.227 108.956 341.56 109.676 341.56ZM126.656 350.64C126.656 351.013 126.523 351.333 126.256 351.6C125.989 351.867 125.669 352 125.296 352H123.496C123.123 352 122.803 351.867 122.536 351.6C122.269 351.333 122.136 351.013 122.136 350.64V324.96C122.136 324.587 122.269 324.267 122.536 324C122.803 323.733 123.123 323.6 123.496 323.6H125.296C125.989 323.6 126.429 323.933 126.616 324.6C127.923 323.667 129.723 323.2 132.016 323.2C133.909 323.2 135.589 323.68 137.056 324.64C138.549 325.573 139.723 326.827 140.576 328.4C141.429 329.973 141.856 331.707 141.856 333.6C141.856 335.493 141.456 337.227 140.656 338.8C139.856 340.373 138.736 341.64 137.296 342.6C135.883 343.533 134.216 344 132.296 344C131.149 344 130.096 343.84 129.136 343.52C128.203 343.173 127.376 342.693 126.656 342.08V350.64ZM132.176 341.56C133.456 341.56 134.483 341.187 135.256 340.44C136.056 339.667 136.629 338.667 136.976 337.44C137.349 336.213 137.536 334.933 137.536 333.6C137.536 332.267 137.296 330.987 136.816 329.76C136.336 328.533 135.669 327.533 134.816 326.76C133.989 325.987 133.056 325.6 132.016 325.6C130.523 325.6 129.256 326.307 128.216 327.72C127.203 329.133 126.696 331.16 126.696 333.8C126.696 335.267 127.003 336.587 127.616 337.76C128.229 338.933 128.963 339.867 129.816 340.56C130.669 341.227 131.456 341.56 132.176 341.56ZM149.97 318.52C149.97 318.893 149.837 319.213 149.57 319.48C149.303 319.747 148.983 319.88 148.61 319.88H146.21C145.837 319.88 145.517 319.747 145.25 319.48C144.983 319.213 144.85 318.893 144.85 318.52V316.16C144.85 315.787 144.983 315.467 145.25 315.2C145.517 314.933 145.837 314.8 146.21 314.8H148.61C148.983 314.8 149.303 314.933 149.57 315.2C149.837 315.467 149.97 315.787 149.97 316.16V318.52ZM149.97 342.64C149.97 343.013 149.837 343.333 149.57 343.6C149.303 343.867 148.983 344 148.61 344H146.21C145.837 344 145.517 343.867 145.25 343.6C144.983 343.333 144.85 343.013 144.85 342.64V324.96C144.85 324.587 144.983 324.267 145.25 324C145.517 323.733 145.837 323.6 146.21 323.6H148.61C148.983 323.6 149.303 323.733 149.57 324C149.837 324.267 149.97 324.587 149.97 324.96V342.64ZM171.264 341.32C170.437 342.147 169.384 342.867 168.104 343.48C166.85 344.093 165.477 344.4 163.984 344.4C160.677 344.4 158.104 343.453 156.264 341.56C154.45 339.64 153.544 337.067 153.544 333.84C153.544 331.813 153.957 330 154.784 328.4C155.637 326.8 156.797 325.533 158.264 324.6C159.757 323.667 161.477 323.2 163.424 323.2C165.424 323.2 167.17 323.627 168.664 324.48C170.184 325.333 171.37 326.507 172.224 328C173.077 329.493 173.504 331.213 173.504 333.16C173.504 333.533 173.37 333.84 173.104 334.08C172.864 334.32 172.557 334.44 172.184 334.44H157.864C157.97 336.813 158.597 338.667 159.744 340C160.89 341.333 162.304 342 163.984 342C164.837 342 165.517 341.773 166.024 341.32C166.53 340.867 167.037 340.227 167.544 339.4C167.837 338.813 168.29 338.587 168.904 338.72L170.384 339.08C171.21 339.293 171.624 339.76 171.624 340.48C171.624 340.8 171.504 341.08 171.264 341.32ZM163.424 325.6C162.65 325.6 161.89 325.893 161.144 326.48C160.397 327.04 159.744 327.8 159.184 328.76C158.624 329.72 158.237 330.813 158.024 332.04H168.344C168.184 330.147 167.664 328.6 166.784 327.4C165.904 326.2 164.784 325.6 163.424 325.6Z" fill="#FFF2E2"/>
<path d="M0.655313 382.5C0.641979 382.287 0.701979 382.113 0.835313 381.98C0.968646 381.847 1.13531 381.78 1.33531 381.78H2.53531C2.72198 381.78 2.87531 381.847 2.99531 381.98C3.11531 382.1 3.18198 382.253 3.19531 382.44C3.27531 383.533 3.55531 384.4 4.03531 385.04C4.51531 385.68 5.16198 386 5.97531 386C6.80198 386 7.43531 385.76 7.87531 385.28C8.32865 384.8 8.55531 384.147 8.55531 383.32C8.55531 382.707 8.27531 382.1 7.71531 381.5C7.15531 380.9 6.32865 380.253 5.23531 379.56C4.24865 379.067 3.46865 378.627 2.89531 378.24C2.33531 377.84 1.93531 377.4 1.69531 376.92C1.46865 376.427 1.35531 375.8 1.35531 375.04C1.35531 374.547 1.51531 374.033 1.83531 373.5C2.16865 372.967 2.66865 372.52 3.33531 372.16C4.00198 371.787 4.84198 371.6 5.85531 371.6C6.60198 371.6 7.32865 371.753 8.03531 372.06C8.74198 372.353 9.44865 372.753 10.1553 373.26C10.422 373.42 10.5553 373.633 10.5553 373.9C10.5553 374.127 10.4486 374.293 10.2353 374.4L9.75531 374.64C9.70198 374.653 9.64865 374.673 9.59531 374.7C9.55531 374.713 9.51531 374.72 9.47531 374.72C9.32865 374.72 9.18865 374.667 9.05531 374.56C8.29531 373.933 7.68865 373.48 7.23531 373.2C6.78198 372.907 6.32198 372.76 5.85531 372.76C5.24198 372.76 4.72865 372.98 4.31531 373.42C3.91531 373.847 3.71531 374.373 3.71531 375C3.71531 375.693 3.87531 376.32 4.19531 376.88C4.52865 377.44 5.20198 377.953 6.21531 378.42C7.14865 378.847 7.97531 379.313 8.69531 379.82C9.42865 380.313 10.002 380.847 10.4153 381.42C10.842 381.993 11.0553 382.62 11.0553 383.3C11.0553 384.047 10.8353 384.713 10.3953 385.3C9.95531 385.887 9.35531 386.353 8.59531 386.7C7.83531 387.033 6.96198 387.2 5.97531 387.2C4.44198 387.2 3.20865 386.773 2.27531 385.92C1.34198 385.053 0.801979 383.913 0.655313 382.5ZM21.9602 386.28C21.9602 386.493 21.8935 386.667 21.7602 386.8C21.6268 386.933 21.4668 387 21.2802 387H20.1602C19.9735 387 19.8135 386.933 19.6802 386.8C19.5468 386.653 19.4802 386.473 19.4802 386.26C19.4802 385.273 19.4802 384.513 19.4802 383.98C19.4802 383.433 19.4735 383.02 19.4602 382.74C19.4602 382.447 19.4602 382.2 19.4602 382C19.4602 380.667 19.3135 379.633 19.0202 378.9C18.7402 378.167 18.2735 377.8 17.6202 377.8C16.7935 377.8 16.1868 377.98 15.8002 378.34C15.4135 378.687 15.2202 379.253 15.2202 380.04V386.32C15.2202 386.507 15.1535 386.667 15.0202 386.8C14.8868 386.933 14.7268 387 14.5402 387H13.3402C13.1535 387 12.9935 386.933 12.8602 386.8C12.7268 386.667 12.6602 386.507 12.6602 386.32V377.28C12.6602 377.093 12.7268 376.933 12.8602 376.8C12.9935 376.667 13.1535 376.6 13.3402 376.6H14.5402C14.8335 376.6 15.0402 376.727 15.1602 376.98C15.8935 376.727 16.7135 376.6 17.6202 376.6C18.5668 376.6 19.3202 376.747 19.8802 377.04C20.4402 377.333 20.8668 377.74 21.1602 378.26C21.4535 378.767 21.6535 379.347 21.7602 380C21.8668 380.653 21.9268 381.34 21.9402 382.06C21.9535 382.26 21.9602 382.507 21.9602 382.8C21.9602 383.08 21.9602 383.487 21.9602 384.02C21.9602 384.553 21.9602 385.307 21.9602 386.28ZM27.1758 387.2C26.3224 387.2 25.5958 386.98 24.9958 386.54C24.4091 386.087 23.9558 385.467 23.6358 384.68C23.3291 383.893 23.1758 382.993 23.1758 381.98C23.1758 380.98 23.3558 380.073 23.7158 379.26C24.0891 378.447 24.6024 377.8 25.2558 377.32C25.9091 376.84 26.6758 376.6 27.5558 376.6C28.7024 376.6 29.6558 376.847 30.4158 377.34C31.1758 377.82 31.7424 378.447 32.1158 379.22C32.4891 379.993 32.6758 380.813 32.6758 381.68C32.6758 381.733 32.6758 381.787 32.6758 381.84C32.7691 382.733 32.8758 383.547 32.9958 384.28C33.1158 385 33.2358 385.6 33.3558 386.08C33.3691 386.12 33.3758 386.173 33.3758 386.24C33.3758 386.64 33.1691 386.873 32.7558 386.94L31.6158 387.08C31.2424 387.12 31.0091 386.967 30.9158 386.62C30.8624 386.407 30.8158 386.187 30.7758 385.96C30.3224 386.347 29.7958 386.653 29.1958 386.88C28.5958 387.093 27.9224 387.2 27.1758 387.2ZM27.1758 386C27.8291 386 28.3691 385.787 28.7958 385.36C29.2224 384.92 29.5424 384.367 29.7558 383.7C29.9824 383.033 30.0958 382.347 30.0958 381.64C30.0958 381.627 30.0958 381.6 30.0958 381.56C30.0824 381.493 30.0758 381.42 30.0758 381.34C30.0758 381.273 30.0758 381.213 30.0758 381.16C30.0358 380.573 29.9158 380.027 29.7158 379.52C29.5158 379 29.2358 378.587 28.8758 378.28C28.5158 377.96 28.0758 377.8 27.5558 377.8C27.2758 377.8 26.9958 378.007 26.7158 378.42C26.4358 378.82 26.2024 379.34 26.0158 379.98C25.8291 380.62 25.7358 381.287 25.7358 381.98C25.7358 382.673 25.8091 383.327 25.9558 383.94C26.1024 384.553 26.2891 385.053 26.5158 385.44C26.7424 385.813 26.9624 386 27.1758 386ZM37.117 390.32C37.117 390.507 37.0504 390.667 36.917 390.8C36.7837 390.933 36.6237 391 36.437 391H35.537C35.3504 391 35.1904 390.933 35.057 390.8C34.9237 390.667 34.857 390.507 34.857 390.32V377.48C34.857 377.293 34.9237 377.133 35.057 377C35.1904 376.867 35.3504 376.8 35.537 376.8H36.437C36.7837 376.8 37.0037 376.967 37.097 377.3C37.7504 376.833 38.6504 376.6 39.797 376.6C40.7437 376.6 41.5837 376.84 42.317 377.32C43.0637 377.787 43.6504 378.413 44.077 379.2C44.5037 379.987 44.717 380.853 44.717 381.8C44.717 382.747 44.517 383.613 44.117 384.4C43.717 385.187 43.157 385.82 42.437 386.3C41.7304 386.767 40.897 387 39.937 387C39.3637 387 38.837 386.92 38.357 386.76C37.8904 386.587 37.477 386.347 37.117 386.04V390.32ZM39.877 385.78C40.517 385.78 41.0304 385.593 41.417 385.22C41.817 384.833 42.1037 384.333 42.277 383.72C42.4637 383.107 42.557 382.467 42.557 381.8C42.557 381.133 42.437 380.493 42.197 379.88C41.957 379.267 41.6237 378.767 41.197 378.38C40.7837 377.993 40.317 377.8 39.797 377.8C39.0504 377.8 38.417 378.153 37.897 378.86C37.3904 379.567 37.137 380.58 37.137 381.9C37.137 382.633 37.2904 383.293 37.597 383.88C37.9037 384.467 38.2704 384.933 38.697 385.28C39.1237 385.613 39.517 385.78 39.877 385.78ZM46.7925 385.4C46.7925 385.213 46.8592 385.053 46.9925 384.92C47.1258 384.787 47.2858 384.72 47.4725 384.72H48.7925C48.9792 384.72 49.1392 384.787 49.2725 384.92C49.4058 385.053 49.4725 385.213 49.4725 385.4V386.32C49.4725 386.467 49.4325 386.593 49.3525 386.7L48.7525 388.58C48.6592 388.873 48.4858 389.02 48.2325 389.02C47.7792 389.02 47.5525 388.86 47.5525 388.54L47.7725 387H47.4725C47.2858 387 47.1258 386.933 46.9925 386.8C46.8592 386.667 46.7925 386.507 46.7925 386.32V385.4ZM62.6225 386.32C62.6225 386.507 62.5558 386.667 62.4225 386.8C62.2892 386.933 62.1292 387 61.9425 387H60.7425C60.5558 387 60.3958 386.933 60.2625 386.8C60.1292 386.667 60.0625 386.507 60.0625 386.32V372.38C60.0625 372.207 60.1158 372.06 60.2225 371.94C60.3425 371.82 60.4892 371.753 60.6625 371.74C61.1292 371.687 61.5692 371.653 61.9825 371.64C62.4092 371.613 62.8158 371.6 63.2025 371.6C67.7358 371.6 70.0025 373.353 70.0025 376.86C70.0025 378.353 69.4292 379.48 68.2825 380.24C67.1492 380.987 65.4892 381.36 63.3025 381.36C63.1958 381.36 63.0825 381.36 62.9625 381.36C62.8558 381.36 62.7425 381.353 62.6225 381.34V386.32ZM62.6225 372.78V380.14C62.9158 380.153 63.1892 380.16 63.4425 380.16C64.4558 380.16 65.2492 380.053 65.8225 379.84C66.4092 379.613 66.8225 379.26 67.0625 378.78C67.3158 378.287 67.4425 377.647 67.4425 376.86C67.4425 375.86 67.3092 375.067 67.0425 374.48C66.7892 373.88 66.3558 373.447 65.7425 373.18C65.1425 372.913 64.3158 372.78 63.2625 372.78H62.6225ZM74.067 374.26C74.067 374.447 74.0004 374.607 73.867 374.74C73.7337 374.873 73.5737 374.94 73.387 374.94H72.187C72.0004 374.94 71.8404 374.873 71.707 374.74C71.5737 374.607 71.507 374.447 71.507 374.26V373.08C71.507 372.893 71.5737 372.733 71.707 372.6C71.8404 372.467 72.0004 372.4 72.187 372.4H73.387C73.5737 372.4 73.7337 372.467 73.867 372.6C74.0004 372.733 74.067 372.893 74.067 373.08V374.26ZM74.067 386.32C74.067 386.507 74.0004 386.667 73.867 386.8C73.7337 386.933 73.5737 387 73.387 387H72.187C72.0004 387 71.8404 386.933 71.707 386.8C71.5737 386.667 71.507 386.507 71.507 386.32V377.48C71.507 377.293 71.5737 377.133 71.707 377C71.8404 376.867 72.0004 376.8 72.187 376.8H73.387C73.5737 376.8 73.7337 376.867 73.867 377C74.0004 377.133 74.067 377.293 74.067 377.48V386.32ZM85.5539 379.54C85.5939 379.633 85.6139 379.72 85.6139 379.8C85.6139 379.973 85.5472 380.12 85.4139 380.24C85.2806 380.347 85.1206 380.413 84.9339 380.44L83.8539 380.54C83.6939 380.553 83.5472 380.513 83.4139 380.42C83.2939 380.327 83.2139 380.2 83.1739 380.04C82.9739 379.373 82.6672 378.833 82.2539 378.42C81.8539 378.007 81.3672 377.8 80.7939 377.8C80.3539 377.8 79.9539 377.987 79.5939 378.36C79.2339 378.733 78.9472 379.233 78.7339 379.86C78.5206 380.487 78.4139 381.173 78.4139 381.92C78.4139 383.2 78.6406 384.2 79.0939 384.92C79.5472 385.64 80.2072 386 81.0739 386C81.6606 386 82.1339 385.78 82.4939 385.34C82.8539 384.9 83.1206 384.273 83.2939 383.46C83.3872 383.073 83.6206 382.893 83.9939 382.92L85.1339 383.02C85.3206 383.033 85.4739 383.1 85.5939 383.22C85.7272 383.34 85.7939 383.487 85.7939 383.66C85.7939 383.713 85.7806 383.78 85.7539 383.86C85.4606 384.86 84.9072 385.667 84.0939 386.28C83.2806 386.893 82.2739 387.2 81.0739 387.2C79.4206 387.2 78.1339 386.727 77.2139 385.78C76.3072 384.82 75.8539 383.533 75.8539 381.92C75.8539 380.907 76.0606 380 76.4739 379.2C76.9006 378.4 77.4806 377.767 78.2139 377.3C78.9606 376.833 79.8206 376.6 80.7939 376.6C81.5272 376.6 82.2072 376.733 82.8339 377C83.4739 377.267 84.0272 377.62 84.4939 378.06C84.9739 378.5 85.3272 378.993 85.5539 379.54ZM90.7153 386.54C90.7153 386.98 90.4953 387.2 90.0553 387.2H89.0153C88.5753 387.2 88.3553 386.98 88.3553 386.54V378H86.4553C86.0153 378 85.7953 377.8 85.7953 377.4C85.7953 377 86.0153 376.8 86.4553 376.8H88.3553V372.46C88.3553 372.02 88.5753 371.8 89.0153 371.8H90.0553C90.4953 371.8 90.7153 372.02 90.7153 372.46V376.8H92.6153C93.0553 376.8 93.2753 377 93.2753 377.4C93.2753 377.8 93.0553 378 92.6153 378H90.7153V386.54ZM103.722 386.32C103.722 386.507 103.655 386.667 103.522 386.8C103.388 386.933 103.228 387 103.042 387H102.042C101.882 387 101.735 386.953 101.602 386.86C101.482 386.753 101.408 386.62 101.382 386.46C100.955 386.687 100.475 386.867 99.9417 387C99.4217 387.133 98.8551 387.2 98.2417 387.2C97.2951 387.2 96.5484 387.053 96.0017 386.76C95.4684 386.467 95.0751 385.96 94.8217 385.24C94.5817 384.52 94.4284 383.533 94.3617 382.28C94.2951 381.027 94.2617 379.44 94.2617 377.52C94.2617 377.307 94.3284 377.133 94.4617 377C94.5951 376.867 94.7551 376.8 94.9417 376.8H95.9417C96.1284 376.8 96.2884 376.873 96.4217 377.02C96.5551 377.153 96.6217 377.327 96.6217 377.54C96.6217 379.033 96.6417 380.287 96.6817 381.3C96.7351 382.313 96.8017 383.133 96.8817 383.76C96.9751 384.387 97.0884 384.86 97.2217 385.18C97.3551 385.5 97.5017 385.72 97.6617 385.84C97.8351 385.947 98.0284 386 98.2417 386C98.8417 386 99.3751 385.853 99.8417 385.56C100.308 385.267 100.675 384.867 100.942 384.36C101.222 383.84 101.362 383.247 101.362 382.58V377.48C101.362 377.293 101.428 377.133 101.562 377C101.695 376.867 101.855 376.8 102.042 376.8H103.042C103.228 376.8 103.388 376.867 103.522 377C103.655 377.133 103.722 377.293 103.722 377.48V386.32ZM112.907 377.24C113.093 377.373 113.24 377.513 113.347 377.66C113.467 377.793 113.527 377.92 113.527 378.04C113.527 378.133 113.48 378.22 113.387 378.3L113.027 378.56C112.893 378.653 112.767 378.7 112.647 378.7C112.527 378.7 112.427 378.66 112.347 378.58C112 378.287 111.707 378.093 111.467 378C111.227 377.893 110.98 377.84 110.727 377.84C110.287 377.84 109.86 378.047 109.447 378.46C109.047 378.873 108.72 379.42 108.467 380.1C108.213 380.78 108.087 381.52 108.087 382.32V386.34C108.087 386.78 107.867 387 107.427 387H106.407C106.22 387 106.06 386.933 105.927 386.8C105.793 386.667 105.727 386.507 105.727 386.32V377.46C105.727 377.02 105.947 376.8 106.387 376.8H107.427C107.867 376.8 108.087 377 108.087 377.4C108.46 377.16 108.867 376.973 109.307 376.84C109.747 376.707 110.22 376.64 110.727 376.64C111.14 376.64 111.533 376.687 111.907 376.78C112.28 376.86 112.613 377.013 112.907 377.24ZM122.331 385.66C121.918 386.073 121.391 386.433 120.751 386.74C120.124 387.047 119.438 387.2 118.691 387.2C117.038 387.2 115.751 386.727 114.831 385.78C113.924 384.82 113.471 383.533 113.471 381.92C113.471 380.907 113.678 380 114.091 379.2C114.518 378.4 115.098 377.767 115.831 377.3C116.578 376.833 117.438 376.6 118.411 376.6C119.411 376.6 120.284 376.813 121.031 377.24C121.791 377.667 122.384 378.253 122.811 379C123.238 379.747 123.451 380.607 123.451 381.58C123.451 381.767 123.384 381.92 123.251 382.04C123.131 382.16 122.978 382.22 122.791 382.22H115.631C115.684 383.407 115.998 384.333 116.571 385C117.144 385.667 117.851 386 118.691 386C119.118 386 119.458 385.887 119.711 385.66C119.964 385.433 120.218 385.113 120.471 384.7C120.618 384.407 120.844 384.293 121.151 384.36L121.891 384.54C122.304 384.647 122.511 384.88 122.511 385.24C122.511 385.4 122.451 385.54 122.331 385.66ZM118.411 377.8C118.024 377.8 117.644 377.947 117.271 378.24C116.898 378.52 116.571 378.9 116.291 379.38C116.011 379.86 115.818 380.407 115.711 381.02H120.871C120.791 380.073 120.531 379.3 120.091 378.7C119.651 378.1 119.091 377.8 118.411 377.8ZM125.523 385.4C125.523 385.213 125.59 385.053 125.723 384.92C125.856 384.787 126.016 384.72 126.203 384.72H127.523C127.71 384.72 127.87 384.787 128.003 384.92C128.136 385.053 128.203 385.213 128.203 385.4V386.32C128.203 386.467 128.163 386.593 128.083 386.7L127.483 388.58C127.39 388.873 127.216 389.02 126.963 389.02C126.51 389.02 126.283 388.86 126.283 388.54L126.503 387H126.203C126.016 387 125.856 386.933 125.723 386.8C125.59 386.667 125.523 386.507 125.523 386.32V385.4ZM147.053 385.8C147.493 385.8 147.713 386 147.713 386.4C147.713 386.8 147.493 387 147.053 387H139.253C138.813 387 138.593 386.78 138.593 386.34V372.46C138.593 372.02 138.813 371.8 139.253 371.8H147.053C147.493 371.8 147.713 372 147.713 372.4C147.713 372.8 147.493 373 147.053 373H141.153V378.92H146.513C146.953 378.92 147.173 379.12 147.173 379.52C147.173 379.92 146.953 380.12 146.513 380.12H141.153V385.8H147.053ZM150.976 386.8C150.91 386.893 150.81 386.953 150.676 386.98C150.543 386.993 150.41 387 150.276 387H149.616C149.283 387 149.05 386.973 148.916 386.92C148.783 386.853 148.716 386.76 148.716 386.64C148.716 386.533 148.763 386.393 148.856 386.22C148.963 386.047 149.103 385.847 149.276 385.62L152.036 381.9L149.256 378.18C149.083 377.953 148.936 377.753 148.816 377.58C148.71 377.407 148.656 377.267 148.656 377.16C148.656 376.92 148.976 376.8 149.616 376.8H150.276C150.41 376.8 150.536 376.807 150.656 376.82C150.79 376.833 150.896 376.893 150.976 377L153.336 380.16L155.696 377C155.776 376.893 155.876 376.833 155.996 376.82C156.13 376.807 156.263 376.8 156.396 376.8H157.056C157.683 376.8 157.996 376.907 157.996 377.12C157.996 377.227 157.943 377.367 157.836 377.54C157.743 377.713 157.603 377.927 157.416 378.18L154.636 381.9L157.416 385.62C157.603 385.86 157.75 386.067 157.856 386.24C157.963 386.4 158.016 386.54 158.016 386.66C158.016 386.887 157.696 387 157.056 387H156.396C156.263 387 156.13 386.993 155.996 386.98C155.863 386.953 155.763 386.893 155.696 386.8L153.336 383.64L150.976 386.8ZM161.785 390.32C161.785 390.507 161.718 390.667 161.585 390.8C161.452 390.933 161.292 391 161.105 391H160.205C160.018 391 159.858 390.933 159.725 390.8C159.592 390.667 159.525 390.507 159.525 390.32V377.48C159.525 377.293 159.592 377.133 159.725 377C159.858 376.867 160.018 376.8 160.205 376.8H161.105C161.452 376.8 161.672 376.967 161.765 377.3C162.418 376.833 163.318 376.6 164.465 376.6C165.412 376.6 166.252 376.84 166.985 377.32C167.732 377.787 168.318 378.413 168.745 379.2C169.172 379.987 169.385 380.853 169.385 381.8C169.385 382.747 169.185 383.613 168.785 384.4C168.385 385.187 167.825 385.82 167.105 386.3C166.398 386.767 165.565 387 164.605 387C164.032 387 163.505 386.92 163.025 386.76C162.558 386.587 162.145 386.347 161.785 386.04V390.32ZM164.545 385.78C165.185 385.78 165.698 385.593 166.085 385.22C166.485 384.833 166.772 384.333 166.945 383.72C167.132 383.107 167.225 382.467 167.225 381.8C167.225 381.133 167.105 380.493 166.865 379.88C166.625 379.267 166.292 378.767 165.865 378.38C165.452 377.993 164.985 377.8 164.465 377.8C163.718 377.8 163.085 378.153 162.565 378.86C162.058 379.567 161.805 380.58 161.805 381.9C161.805 382.633 161.958 383.293 162.265 383.88C162.572 384.467 162.938 384.933 163.365 385.28C163.792 385.613 164.185 385.78 164.545 385.78ZM171.175 372.48C171.175 372.293 171.262 372.133 171.435 372C171.622 371.867 171.842 371.8 172.095 371.8H172.755C173.008 371.8 173.222 371.867 173.395 372C173.568 372.133 173.655 372.293 173.655 372.48V386.52C173.655 386.707 173.568 386.867 173.395 387C173.222 387.133 173.008 387.2 172.755 387.2H172.095C171.842 387.2 171.622 387.133 171.435 387C171.262 386.867 171.175 386.707 171.175 386.52V372.48ZM180.204 376.6C181.19 376.6 182.057 376.84 182.804 377.32C183.55 377.787 184.13 378.427 184.544 379.24C184.97 380.053 185.184 380.973 185.184 382C185.184 382.987 184.984 383.873 184.584 384.66C184.197 385.447 183.65 386.067 182.944 386.52C182.237 386.973 181.41 387.2 180.464 387.2C179.464 387.2 178.584 386.973 177.824 386.52C177.077 386.053 176.49 385.42 176.064 384.62C175.65 383.82 175.444 382.913 175.444 381.9C175.444 380.873 175.637 379.96 176.024 379.16C176.424 378.36 176.977 377.733 177.684 377.28C178.404 376.827 179.244 376.6 180.204 376.6ZM180.204 377.8C179.684 377.8 179.237 377.98 178.864 378.34C178.49 378.687 178.204 379.173 178.004 379.8C177.804 380.413 177.704 381.113 177.704 381.9C177.704 383.313 177.97 384.353 178.504 385.02C179.037 385.673 179.69 386 180.464 386C181.064 386 181.544 385.807 181.904 385.42C182.264 385.033 182.524 384.533 182.684 383.92C182.844 383.307 182.924 382.667 182.924 382C182.924 380.773 182.684 379.767 182.204 378.98C181.724 378.193 181.057 377.8 180.204 377.8ZM193.668 377.24C193.855 377.373 194.002 377.513 194.108 377.66C194.228 377.793 194.288 377.92 194.288 378.04C194.288 378.133 194.242 378.22 194.148 378.3L193.788 378.56C193.655 378.653 193.528 378.7 193.408 378.7C193.288 378.7 193.188 378.66 193.108 378.58C192.762 378.287 192.468 378.093 192.228 378C191.988 377.893 191.742 377.84 191.488 377.84C191.048 377.84 190.622 378.047 190.208 378.46C189.808 378.873 189.482 379.42 189.228 380.1C188.975 380.78 188.848 381.52 188.848 382.32V386.34C188.848 386.78 188.628 387 188.188 387H187.168C186.982 387 186.822 386.933 186.688 386.8C186.555 386.667 186.488 386.507 186.488 386.32V377.46C186.488 377.02 186.708 376.8 187.148 376.8H188.188C188.628 376.8 188.848 377 188.848 377.4C189.222 377.16 189.628 376.973 190.068 376.84C190.508 376.707 190.982 376.64 191.488 376.64C191.902 376.64 192.295 376.687 192.668 376.78C193.042 376.86 193.375 377.013 193.668 377.24ZM203.093 385.66C202.679 386.073 202.153 386.433 201.513 386.74C200.886 387.047 200.199 387.2 199.453 387.2C197.799 387.2 196.513 386.727 195.593 385.78C194.686 384.82 194.233 383.533 194.233 381.92C194.233 380.907 194.439 380 194.853 379.2C195.279 378.4 195.859 377.767 196.593 377.3C197.339 376.833 198.199 376.6 199.173 376.6C200.173 376.6 201.046 376.813 201.793 377.24C202.553 377.667 203.146 378.253 203.573 379C203.999 379.747 204.213 380.607 204.213 381.58C204.213 381.767 204.146 381.92 204.013 382.04C203.893 382.16 203.739 382.22 203.553 382.22H196.393C196.446 383.407 196.759 384.333 197.333 385C197.906 385.667 198.613 386 199.453 386C199.879 386 200.219 385.887 200.473 385.66C200.726 385.433 200.979 385.113 201.233 384.7C201.379 384.407 201.606 384.293 201.913 384.36L202.653 384.54C203.066 384.647 203.273 384.88 203.273 385.24C203.273 385.4 203.213 385.54 203.093 385.66ZM199.173 377.8C198.786 377.8 198.406 377.947 198.033 378.24C197.659 378.52 197.333 378.9 197.053 379.38C196.773 379.86 196.579 380.407 196.473 381.02H201.633C201.553 380.073 201.293 379.3 200.853 378.7C200.413 378.1 199.853 377.8 199.173 377.8Z" fill="#FFF2E2"/>
</svg>
